<svg xmlns="http://www.w3.org/2000/svg" viewBox="0 0 1280 800"><defs><style>.cls-1{fill:#f8f8f8;}.cls-2{fill:#fff6c7;}.cls-3{fill:#314d51;}.cls-11,.cls-18,.cls-4,.cls-5{fill:none;}.cls-11,.cls-4,.cls-5{stroke:#314d51;stroke-miterlimit:10;}.cls-4,.cls-5{stroke-linecap:round;}.cls-4{stroke-width:3px;}.cls-5{stroke-width:6px;}.cls-6{fill:#578476;}.cls-7{fill:#46665a;}.cls-8{fill:#fff;}.cls-9{fill:#ff4e00;}.cls-10{fill:#ffa440;}.cls-11{stroke-width:7px;}.cls-12{fill:#fcfbfa;opacity:0.63;}.cls-13{fill:#858585;}.cls-14{fill:#e6e6e6;}.cls-15{fill:#d1d3d4;}.cls-16{fill:#020202;}.cls-17{fill:#414042;}.cls-19{fill:#bbbcbd;}.cls-20{fill:#767578;}.cls-21{fill:#dcdcdc;}.cls-22{fill:#999;}.cls-23{fill:#ccc;}</style></defs><title>startup</title><g id="Background_Color" data-name="Background Color"><rect id="Rectangle" class="cls-1" width="1280" height="800"/></g><g id="_2D_Desktop" data-name="2D Desktop"><g id="Layer_3" data-name="Layer 3"><path class="cls-2" d="M725.88,205.84V366s33-.59,32.39,0,0-160.17,0-160.17Z"/><path class="cls-3" d="M770.21,156.33c14.06,7,21.1,14.07,21.1,14.07,0,14.07,14.06,77.37,14.06,77.37L777.24,191.5l-7-7-14.07-7Z"/><path class="cls-3" d="M713.94,156.33c-14.07,7-21.1,14.07-21.1,14.07,0,14.07-14.07,77.37-14.07,77.37l28.14-56.27,7-7,14.07-7Z"/><path class="cls-4" d="M742.07,53.17v-34"/><path class="cls-5" d="M742.07,20.74V19.18"/><path class="cls-6" d="M758.29,205.57c22.21-30.68,52-93.69-16.26-154.52-68.26,60.83-38.46,123.84-16.25,154.52Z"/><path class="cls-7" d="M742.07,51.09l0,0c-68.26,60.83-38.46,123.84-16.25,154.52h16.29Z"/><path class="cls-3" d="M757.08,66.24c-.94-1.08-1.91-2.17-2.91-3.25a39.18,39.18,0,0,1-24.26,0q-1.49,1.63-2.9,3.26a52.94,52.94,0,0,0,30.07,0Z"/><path class="cls-3" d="M709.08,176.4q1.5,3.51,3.14,6.82c8.89.79,19.06,1.25,29.85,1.25s20.9-.45,29.77-1.24c1.09-2.21,2.15-4.48,3.15-6.82-9.59.65-20.86,1-32.92,1S718.69,177.06,709.08,176.4Z"/><path class="cls-3" d="M742.07,111.41a11.35,11.35,0,1,1,11.35-11.35A11.37,11.37,0,0,1,742.07,111.41Z"/><path class="cls-8" d="M742.07,92.21a7.85,7.85,0,1,1-7.85,7.85,7.86,7.86,0,0,1,7.85-7.85m0-7a14.85,14.85,0,1,0,14.85,14.85,14.85,14.85,0,0,0-14.85-14.85Z"/><path class="cls-9" d="M725.66,205.57c-37.51,17.19,16.41,57.44,16.41,82.84,5.47-40.64,51.19-57.05,16.41-82.84Z"/><path class="cls-10" d="M725.66,205.57c-16.8,14.45,12.9,50.4,12.9,50.4s36.34-29.3,19.92-50.4Z"/><path class="cls-3" d="M729.57,168.94c0-5.24,5.6-9.48,12.5-9.48s12.51,4.24,12.51,9.48-12.51,78.83-12.51,78.83S729.57,174.18,729.57,168.94Z"/><path class="cls-11" d="M728,128.2h0Z"/><path class="cls-11" d="M728,142.26h28.13"/><circle class="cls-12" cx="746.57" cy="94.79" r="2.15"/><path class="cls-2" d="M1014.31,642.33a43.85,43.85,0,0,0-31.84-72.54,62.45,62.45,0,0,0-58.17-41.25,16.49,16.49,0,0,0,.61-4.42,16.19,16.19,0,0,0-28.9-10,30.09,30.09,0,0,0-8.48-12.31,18,18,0,0,0-19.9-29,33.44,33.44,0,0,0-8.8-19.5,18.84,18.84,0,1,0-26.35-25.21,14.13,14.13,0,0,0-12.38-7.32h-.37a25.61,25.61,0,0,0-22.89-37.1,25.72,25.72,0,0,0-6.25.77,17.35,17.35,0,0,0-19.54-9.14A11.17,11.17,0,0,0,760.29,366a18.84,18.84,0,0,0-37.09.41,16.14,16.14,0,0,0-17.86,26.5,11.68,11.68,0,0,0-8.7,11.28,11.55,11.55,0,0,0,.74,4,38.16,38.16,0,0,0-54.17,34.65c0,1.26.06,2.51.18,3.74a18.66,18.66,0,0,0-29,9.32A47.49,47.49,0,0,0,545,494.45a36.48,36.48,0,0,0-49.21,31.11,29.09,29.09,0,0,0-37,31.25h-.48a50.34,50.34,0,0,0-42.7,77,48.58,48.58,0,1,0,73.61,41.63c0-.17,0-.33,0-.5l455.79-2s0,.08,0,.12a41.52,41.52,0,1,0,69.38-30.77Z"/><path class="cls-10" d="M764.75,632.44a40.34,40.34,0,0,0-69.2-12A59.79,59.79,0,0,0,586.41,617a44.75,44.75,0,0,0-73.11,34.63c0,.08,0,.16,0,.25a26.49,26.49,0,1,0,6.57,23.1,44.74,44.74,0,0,0,73,4.68,59.77,59.77,0,0,0,101-10.28A40.32,40.32,0,0,0,721.11,686a34.74,34.74,0,1,0,43.64-53.51Z"/><path class="cls-10" d="M900.47,626.87a29.62,29.62,0,0,0-18.41,6.4,35.63,35.63,0,0,0-62.24.23A27.68,27.68,0,1,0,828.11,678a35.61,35.61,0,0,0,49-3,29.73,29.73,0,1,0,23.37-48.11Z"/><path class="cls-10" d="M1074.48,593.31a46.5,46.5,0,0,0-44.71,59.35,50.34,50.34,0,1,0,23.44,28.54,46.52,46.52,0,1,0,21.27-87.89Z"/></g><g id="Monitor"><path class="cls-13" d="M703.57,543.93a1.38,1.38,0,0,1,0,.2,1,1,0,0,1,0,.17c0,.06,0,.13,0,.19s-.05.11-.07.16a1.24,1.24,0,0,1-.1.2,1.09,1.09,0,0,1-.08.15l-.16.23-.17.21,0,0-.27.27-.2.16-.19.15-.23.15-.25.16-56,42.06a4.37,4.37,0,0,1-.61.31l-.19.08c-.16.07-.33.14-.51.2l-.18.06-.34.09-.25.07-.36.08-.25,0c-.24,0-.49.08-.74.1l-.23,0c-.15,0-.29,0-.44,0h-1.27l-.3,0-.32,0-.29,0c-.12,0-.23,0-.35-.06l-.27-.05-.4-.1-.22-.06a7.19,7.19,0,0,1-.7-.24l-.33-.14-.17-.07c-.16-.08-.32-.16-.47-.25L575,552.93a3.26,3.26,0,0,1-1.92-2.68v3.82a3.25,3.25,0,0,0,1.92,2.67l61.51,35.52.48.25.17.07.29.13h0a7.19,7.19,0,0,0,.7.24l.05,0,.17,0,.4.1.11,0,.16,0,.35.06.13,0,.16,0,.32,0,.16,0h.14l.33,0h.94l.44,0h.23c.25,0,.5-.06.74-.1h0l.21,0,.35-.08.26-.07.33-.09.08,0,.11,0c.18-.06.35-.12.51-.19l.19-.08c.21-.1.42-.2.61-.31l56-42.06.08-.05.17-.11.23-.15.18-.15.2-.16,0,0a1.75,1.75,0,0,0,.24-.23l0,0,.13-.15a.25.25,0,0,0,0-.07c.06-.07.11-.15.16-.22l.06-.1,0-.05.1-.2s0-.08,0-.12a.06.06,0,0,0,0,0,1.39,1.39,0,0,0,.06-.19s0-.09,0-.13v0l0-.2s0-.09,0-.14v-3.87C703.58,543.8,703.57,543.86,703.57,543.93Z"/><path class="cls-14" d="M701.66,541.06c2.55,1.47,2.57,3.85,0,5.32l-56,42.06a10.13,10.13,0,0,1-9.19,0L575,552.93c-2.55-1.47-2.56-3.86,0-5.33l71-33.39a10.1,10.1,0,0,1,9.19,0Z"/><path class="cls-15" d="M485.57,406.11l-.07,25.61c0,6.74,4.71,14.93,10.57,18.32L807.14,629.63c5.86,3.38,10.62.67,10.64-6.07l.07-25.61Z"/><path class="cls-16" d="M807.88,368.69c5.86,3.38,10.59,11.58,10.57,18.31l-.59,211L485.57,406.11l.6-210.95c0-6.73,4.78-9.45,10.64-6.07Zm-308.66,33.8,305,176.12.56-198.18-305-176.12-.57,198.18"/><polygon class="cls-17" points="499.79 204.31 499.22 402.49 804.27 578.61 804.83 380.43 499.79 204.31"/><polygon class="cls-18" points="817.86 597.95 817.85 597.95 817.86 597.95 817.86 597.95"/><path class="cls-19" d="M496.44,184.18l.06,0,.07,0,.39-.2.07,0,.07,0a3.75,3.75,0,0,1,.47-.17h0a4.54,4.54,0,0,1,.53-.12l.06,0h.08l.48,0h.86c.23,0,.47,0,.71.07h0c.29,0,.59.11.88.19h.08l.58.18.11,0,.47.18.06,0,.12.06c.17.07.33.14.5.23l.2.09.67.36,311.06,179.6c.35.19.68.41,1,.64l.32.23.66.5.37.3.6.53.36.33.22.21.23.24c.24.25.47.5.7.76a2.61,2.61,0,0,1,.23.24l.18.21.41.51.27.32.21.29c.1.13.2.26.29.4l.21.27.32.48.2.31.09.13c.19.29.37.59.55.9l0,.06a1.62,1.62,0,0,1,.1.18l.37.65.15.3c.06.11.11.22.16.33s.1.18.14.27c.12.25.24.5.35.75l.06.14v0c.14.32.27.64.39,1,0,.06,0,.12.07.18l.12.35c.06.16.12.32.17.48l.12.37c0,.14.09.29.13.44a2.76,2.76,0,0,1,.08.27c0,.16.08.32.12.48s.09.36.13.55a1.21,1.21,0,0,1,0,.18c0,.13,0,.26.07.39.05.29.1.57.14.85,0,.08,0,.16,0,.24s0,.35.06.52l0,.38c0,.39,0,.79,0,1.17l-.6,211h0L825,619.39c0,3.35-1.19,5.7-3.1,6.81l-3.58,2.08-3.59,2.09c1.9-1.11,3.08-3.46,3.09-6.81l.07-25.61h0l3.58-2.08h0l.6-210.95c0-.39,0-.78,0-1.18l0-.37-.09-.76c0-.28-.1-.57-.15-.85s-.07-.39-.11-.58-.09-.36-.14-.54-.12-.51-.2-.76-.09-.29-.13-.44-.19-.56-.29-.84l-.12-.36c-.15-.39-.3-.77-.47-1.16l-.06-.13c-.15-.35-.32-.69-.49-1-.05-.11-.1-.21-.16-.32-.16-.32-.33-.64-.51-1l-.11-.19q-.31-.56-.66-1.08l-.21-.31c-.17-.26-.35-.51-.53-.76l-.29-.4-.48-.61c-.13-.17-.27-.34-.41-.5s-.27-.31-.41-.46-.46-.51-.7-.75-.3-.31-.45-.45l-.36-.34-.6-.52-.36-.3c-.22-.18-.45-.34-.67-.5l-.32-.24c-.34-.23-.67-.44-1-.64L500.4,187l-.67-.36-.19-.1-.51-.23-.18-.08-.47-.17-.11,0-.57-.17-.08,0a7.75,7.75,0,0,0-.88-.19h0a5.69,5.69,0,0,0-.71-.07h-.85c-.17,0-.33,0-.48.06l-.15,0-.53.13h0c-.17.05-.33.11-.48.17l-.14.06-.39.19-.12.07Z"/><path class="cls-16" d="M492.86,186.27l.05,0,.07,0,.39-.19.08,0,.06,0c.15-.06.31-.12.48-.17h0l.53-.13h.15c.15,0,.31,0,.48-.06H496a5.69,5.69,0,0,1,.71.07h0a7.75,7.75,0,0,1,.88.19h.08l.57.17.12,0,.46.17.07,0,.11,0,.51.23.19.1.67.36L811.47,366.6c.34.2.67.41,1,.64l.32.24c.22.16.45.32.67.5l.36.3.6.52.36.34c.07.07.15.13.22.21s.15.16.23.24c.24.24.47.49.71.75l.22.24.18.22c.14.16.28.33.41.5l.27.33.21.28.29.4.21.28c.11.15.21.32.32.48l.21.31a.83.83,0,0,0,.08.12c.19.3.37.6.55.9l0,.06.11.19.36.64.15.31c.06.11.11.21.16.32a2.44,2.44,0,0,1,.14.28c.12.25.24.5.35.75l.06.13,0,0,.39.95.06.17.12.36c.06.15.12.31.17.47s.08.25.12.37.09.3.13.44a2.76,2.76,0,0,1,.08.27c0,.16.08.33.12.49s.1.36.14.54,0,.13,0,.19.05.26.07.39c0,.28.11.57.15.85,0,.07,0,.15,0,.23s0,.35.05.53l0,.37c0,.4,0,.79,0,1.18l-.6,211L817.86,598l.59-211c0-.38,0-.78,0-1.17,0-.13,0-.25,0-.38l-.09-.76c0-.28-.09-.56-.15-.85s-.07-.38-.11-.57-.09-.37-.13-.55-.13-.5-.21-.75-.08-.29-.13-.44-.18-.57-.28-.85c0-.12-.09-.23-.13-.35-.15-.39-.3-.78-.47-1.16l-.06-.14q-.23-.51-.48-1c-.06-.11-.11-.22-.17-.32-.16-.33-.33-.64-.51-1a1.62,1.62,0,0,1-.1-.18c-.22-.37-.44-.73-.67-1.09l-.21-.31-.52-.75-.3-.4c-.15-.21-.32-.41-.48-.61l-.41-.51-.4-.45c-.23-.26-.47-.51-.71-.76l-.45-.45-.36-.33c-.2-.18-.4-.36-.6-.52l-.36-.31c-.22-.17-.44-.34-.67-.5l-.32-.23c-.33-.23-.67-.45-1-.64L496.81,189.09c-.22-.13-.45-.25-.67-.36l-.19-.09c-.17-.09-.34-.16-.51-.23l-.18-.08c-.15-.07-.31-.12-.46-.18l-.12,0q-.29-.11-.57-.18l-.08,0c-.3-.08-.59-.14-.88-.19h0l-.7-.07h-.86l-.48.05-.15,0a4.54,4.54,0,0,0-.53.12h0a3.9,3.9,0,0,0-.48.17l-.14.05-.39.2-.12.06Z"/><polygon class="cls-20" points="817.85 597.95 817.86 597.95 817.86 597.95 817.85 597.95"/></g><g id="Keyboard"><path class="cls-13" d="M652.74,632.35a.86.86,0,0,1,0,.16l0,.13a.83.83,0,0,1,0,.15,1.12,1.12,0,0,0,0,.13l-.08.16-.07.11a.94.94,0,0,1-.12.18l-.13.17,0,0-.22.21-.16.13-.14.11-.18.12-.2.13-50.44,29.31a3.58,3.58,0,0,1-.48.24l-.14.07-.4.15-.15.05-.27.07-.2.06-.28.06-.19,0-.58.08H598l-.35,0h-.73l-.26,0-.24,0a2.13,2.13,0,0,1-.25,0l-.23,0-.27-.05-.22,0-.31-.08-.18,0-.55-.19-.25-.11-.14-.05-.37-.2-137-79.1a2.54,2.54,0,0,1-1.5-2.1v3a2.56,2.56,0,0,0,1.5,2.1l137,79.1.38.19.13.06.23.1h0c.17.07.36.13.54.19H595l.13,0,.32.08.08,0,.13,0,.27.05.11,0h.12l.25,0h1.23l.35,0h.18a5.4,5.4,0,0,0,.58-.09h0l.16,0,.29-.06.2-.06.26-.07.06,0,.09,0,.4-.16.14-.06a3.58,3.58,0,0,0,.48-.24l50.44-29.31.07,0,.13-.09.18-.12.14-.11.16-.13,0,0,.19-.18,0,0,.1-.12,0,0,.13-.18a.35.35,0,0,1,0-.08v0c0-.06,0-.11.08-.16a1,1,0,0,0,0-.1,0,0,0,0,0,0,0,.83.83,0,0,0,0-.15.38.38,0,0,0,0-.1,0,0,0,0,0,0,0s0-.11,0-.16,0-.07,0-.11v-3A.77.77,0,0,1,652.74,632.35Z"/><path class="cls-21" d="M651.25,630.09c2,1.16,2,3,0,4.19l-50.44,29.31a8,8,0,0,1-7.22,0l-137-79.1c-2-1.15-2-3,0-4.18L507,551a7.92,7.92,0,0,1,7.22,0Z"/><path class="cls-22" d="M509.52,600.55l-6.36,3.7a.6.6,0,0,0,0,1.13l44.13,25.48a2.18,2.18,0,0,0,2,0l6.36-3.7a.6.6,0,0,0,0-1.14l-44.13-25.47a2.18,2.18,0,0,0-2,0"/><path class="cls-22" d="M478.68,572.26l-6.36,3.7a.59.59,0,0,0,0,1.13l18.46,10.67a2.2,2.2,0,0,0,2,0l6.36-3.7c.54-.31.54-.82,0-1.14l-18.47-10.66a2.18,2.18,0,0,0-2,0"/><path class="cls-22" d="M607.25,653.86l6.36-3.7a.6.6,0,0,0,0-1.13l-17.78-10.27a2.18,2.18,0,0,0-2,0l-6.36,3.7a.6.6,0,0,0,0,1.14l17.78,10.26a2.18,2.18,0,0,0,2,0"/><path class="cls-22" d="M487.83,566.94l-6.36,3.7c-.54.31-.53.82,0,1.13l13.75,7.94a2.15,2.15,0,0,0,2,0l6.36-3.7a.6.6,0,0,0,0-1.13l-13.75-7.94a2.2,2.2,0,0,0-2,0"/><path class="cls-22" d="M616.41,648.54l6.36-3.7a.59.59,0,0,0,0-1.13l-13.59-7.85a2.18,2.18,0,0,0-2,0l-6.36,3.7a.59.59,0,0,0,0,1.13l13.58,7.85a2.2,2.2,0,0,0,2,0"/><path class="cls-22" d="M497,561.64l-6.36,3.7a.6.6,0,0,0,0,1.13L502,573a2.14,2.14,0,0,0,2,0l6.36-3.69c.54-.32.54-.82,0-1.14l-11.36-6.56a2.18,2.18,0,0,0-2,0"/><path class="cls-22" d="M634.58,638l6.36-3.7c.64-.37.42-.89,0-1.13l-11.32-6.54a2.14,2.14,0,0,0-2,0l-6.36,3.69a.6.6,0,0,0,0,1.14L632.62,638a2.18,2.18,0,0,0,2,0"/><path class="cls-22" d="M560.94,637.61l6.36-3.7c.54-.31.54-.82,0-1.14l-9-5.21a2.18,2.18,0,0,0-2,0l-6.36,3.7a.59.59,0,0,0,0,1.13l9,5.22a2.2,2.2,0,0,0,2,0"/><path class="cls-22" d="M502.33,603.77l6.37-3.7a.6.6,0,0,0,0-1.13l-9-5.21a2.12,2.12,0,0,0-2,0l-6.36,3.69a.6.6,0,0,0,0,1.14l9,5.21a2.12,2.12,0,0,0,2,0"/><path class="cls-22" d="M584.08,633.11l-6.36,3.7c-.54.31-.54.82,0,1.14l6.69,3.86a2.14,2.14,0,0,0,2,0l6.36-3.69a.6.6,0,0,0,0-1.14l-6.7-3.87a2.18,2.18,0,0,0-2,0"/><path class="cls-22" d="M527.25,600.3c.54-.31.54-.82,0-1.14l-6.69-3.86a2.14,2.14,0,0,0-2,0L512.22,599a.6.6,0,0,0,0,1.14l6.7,3.87a2.18,2.18,0,0,0,2,0l6.36-3.7"/><path class="cls-22" d="M537.3,606.1l-6.36,3.7a.6.6,0,0,0,0,1.14l6.7,3.86a2.12,2.12,0,0,0,2,0l6.36-3.69a.6.6,0,0,0,0-1.14l-6.7-3.87a2.18,2.18,0,0,0-2,0"/><path class="cls-22" d="M565.37,622.31,559,626a.6.6,0,0,0,0,1.14l6.7,3.87a2.18,2.18,0,0,0,2,0l6.36-3.7a.6.6,0,0,0,0-1.13l-6.7-3.87a2.12,2.12,0,0,0-2,0"/><path class="cls-22" d="M546.65,611.5l-6.36,3.7c-.54.31-.53.82,0,1.14l6.7,3.86a2.15,2.15,0,0,0,2,0l6.36-3.7a.6.6,0,0,0,0-1.14l-6.69-3.87a2.2,2.2,0,0,0-2,0"/><path class="cls-22" d="M547.72,589.82,541,586a2.15,2.15,0,0,0-2,0l-6.36,3.69a.6.6,0,0,0,0,1.14l6.69,3.87a2.2,2.2,0,0,0,2,0l6.36-3.7c.54-.31.53-.82,0-1.13"/><path class="cls-22" d="M527,575.88l6.36-3.69a.6.6,0,0,0,0-1.14l-6.7-3.87a2.18,2.18,0,0,0-2,0l-6.36,3.7c-.54.31-.54.82,0,1.14l6.69,3.86a2.14,2.14,0,0,0,2,0"/><path class="cls-22" d="M556.35,625.61a2.2,2.2,0,0,0,2,0l6.36-3.7c.54-.31.54-.82,0-1.14l-6.7-3.86a2.12,2.12,0,0,0-2,0l-6.36,3.69a.6.6,0,0,0,0,1.14l6.69,3.87"/><path class="cls-22" d="M511.53,598.6l6.36-3.7a.6.6,0,0,0,0-1.14l-6.7-3.86a2.12,2.12,0,0,0-2,0l-6.36,3.69a.6.6,0,0,0,0,1.14l6.7,3.87a2.18,2.18,0,0,0,2,0"/><path class="cls-22" d="M607.56,634l6.7,3.87a2.18,2.18,0,0,0,2,0l6.36-3.7c.54-.31.54-.82,0-1.14l-6.69-3.86a2.14,2.14,0,0,0-2,0l-6.36,3.69a.6.6,0,0,0,0,1.14"/><path class="cls-22" d="M566.43,600.62l-6.69-3.87a2.2,2.2,0,0,0-2,0l-6.36,3.7c-.54.31-.53.82,0,1.14l6.7,3.86a2.12,2.12,0,0,0,2,0l6.36-3.69a.6.6,0,0,0,0-1.14"/><path class="cls-22" d="M611.24,624.5l6.36-3.69a.6.6,0,0,0,0-1.14l-6.7-3.87a2.18,2.18,0,0,0-2,0l-6.36,3.7c-.54.31-.54.82,0,1.14l6.69,3.86a2.14,2.14,0,0,0,2,0"/><path class="cls-22" d="M545.74,586.69l6.36-3.7c.54-.31.54-.82,0-1.14L545.4,578a2.14,2.14,0,0,0-2,0l-6.36,3.69a.6.6,0,0,0,0,1.14l6.7,3.87a2.18,2.18,0,0,0,2,0"/><path class="cls-22" d="M579.49,648.32l6.36-3.7c.54-.31.54-.82,0-1.14l-6.7-3.86a2.12,2.12,0,0,0-2,0l-6.36,3.69a.6.6,0,0,0,0,1.14l6.7,3.87a2.18,2.18,0,0,0,2,0"/><path class="cls-22" d="M511,569.74l-6.36,3.7c-.54.31-.54.82,0,1.14l6.69,3.86a2.14,2.14,0,0,0,2,0l6.36-3.69a.6.6,0,0,0,0-1.14l-6.7-3.87a2.18,2.18,0,0,0-2,0"/><path class="cls-22" d="M603.86,622.23l-6.7-3.87a2.18,2.18,0,0,0-2,0l-6.36,3.7c-.54.31-.54.82,0,1.14l6.69,3.86a2.14,2.14,0,0,0,2,0l6.36-3.69a.6.6,0,0,0,0-1.14"/><path class="cls-22" d="M585.15,611.42l-6.7-3.86a2.12,2.12,0,0,0-2,0l-6.36,3.69a.6.6,0,0,0,0,1.14l6.7,3.87a2.18,2.18,0,0,0,2,0l6.36-3.7c.55-.31.54-.82,0-1.14"/><path class="cls-22" d="M583.17,608.3l6.36-3.7c.54-.31.54-.82,0-1.14l-6.7-3.86a2.12,2.12,0,0,0-2,0l-6.36,3.69a.6.6,0,0,0,0,1.14l6.69,3.87a2.2,2.2,0,0,0,2,0"/><path class="cls-22" d="M564.45,597.49l6.37-3.69a.6.6,0,0,0,0-1.14l-6.7-3.87a2.18,2.18,0,0,0-2,0l-6.36,3.7a.6.6,0,0,0,0,1.14l6.7,3.86a2.12,2.12,0,0,0,2,0"/><path class="cls-22" d="M574.72,627.71l-6.36,3.7c-.54.31-.53.82,0,1.13l6.7,3.87a2.12,2.12,0,0,0,2,0l6.36-3.69a.6.6,0,0,0,0-1.14l-6.7-3.87a2.2,2.2,0,0,0-2,0"/><path class="cls-22" d="M527.94,600.7l-6.36,3.7a.59.59,0,0,0,0,1.13l6.69,3.87a2.17,2.17,0,0,0,2,0l6.36-3.7a.59.59,0,0,0,0-1.13l-6.7-3.87a2.18,2.18,0,0,0-2,0"/><path class="cls-22" d="M507.33,586.7l6.7,3.87a2.18,2.18,0,0,0,2,0l6.36-3.7a.6.6,0,0,0,0-1.14l-6.7-3.86a2.12,2.12,0,0,0-2,0l-6.36,3.69a.6.6,0,0,0,0,1.14"/><path class="cls-22" d="M563.47,619.11l6.7,3.87a2.18,2.18,0,0,0,2,0l6.36-3.7a.6.6,0,0,0,0-1.13l-6.7-3.87a2.12,2.12,0,0,0-2,0L563.47,618a.6.6,0,0,0,0,1.14"/><path class="cls-22" d="M591.54,635.32l6.7,3.86a2.12,2.12,0,0,0,2,0l6.36-3.69c.55-.32.54-.82,0-1.14l-6.7-3.86a2.15,2.15,0,0,0-2,0l-6.36,3.7a.6.6,0,0,0,0,1.14"/><path class="cls-22" d="M544.76,608.31l6.7,3.86a2.12,2.12,0,0,0,2,0l6.36-3.69c.54-.32.54-.82,0-1.14l-6.69-3.87a2.2,2.2,0,0,0-2,0l-6.36,3.7c-.54.31-.53.82,0,1.14"/><path class="cls-22" d="M575.79,606l-6.7-3.86a2.12,2.12,0,0,0-2,0l-6.36,3.69a.6.6,0,0,0,0,1.14l6.69,3.87a2.2,2.2,0,0,0,2,0l6.36-3.7c.54-.31.54-.82,0-1.14"/><path class="cls-22" d="M529,579l-6.7-3.86a2.12,2.12,0,0,0-2,0L514,578.84a.6.6,0,0,0,0,1.14l6.7,3.87a2.18,2.18,0,0,0,2,0l6.36-3.7a.6.6,0,0,0,0-1.14"/><path class="cls-22" d="M613.22,627.63l-6.7-3.87a2.18,2.18,0,0,0-2,0l-6.36,3.7a.6.6,0,0,0,0,1.14l6.7,3.87a2.15,2.15,0,0,0,2,0l6.36-3.69c.55-.32.54-.82,0-1.14"/><path class="cls-22" d="M555.1,592.09l6.36-3.7a.59.59,0,0,0,0-1.13l-6.7-3.87a2.18,2.18,0,0,0-2,0l-6.36,3.7a.59.59,0,0,0,0,1.13l6.69,3.87a2.2,2.2,0,0,0,2,0"/><path class="cls-22" d="M570.13,642.91l6.36-3.69a.6.6,0,0,0,0-1.14l-6.7-3.87a2.18,2.18,0,0,0-2,0l-6.37,3.7c-.54.31-.53.82,0,1.14l6.7,3.86a2.12,2.12,0,0,0,2,0"/><path class="cls-22" d="M509,566.61l6.7,3.87a2.12,2.12,0,0,0,2,0l6.36-3.7a.59.59,0,0,0,0-1.13l-6.69-3.87a2.2,2.2,0,0,0-2,0l-6.36,3.7c-.54.31-.53.82,0,1.13"/><path class="cls-22" d="M506,556.38l-6.36,3.7a.6.6,0,0,0,0,1.13l6.7,3.87a2.18,2.18,0,0,0,2,0l6.36-3.7a.6.6,0,0,0,0-1.13l-6.7-3.87a2.18,2.18,0,0,0-2,0"/><path class="cls-22" d="M592.52,613.7l6.37-3.7c.54-.31.53-.82,0-1.13l-6.7-3.87a2.12,2.12,0,0,0-2,0l-6.36,3.7a.6.6,0,0,0,0,1.13l6.7,3.87a2.18,2.18,0,0,0,2,0"/><path class="cls-22" d="M601.88,619.1l6.36-3.7a.6.6,0,0,0,0-1.13l-6.7-3.87a2.2,2.2,0,0,0-2,0l-6.36,3.7c-.54.31-.53.82,0,1.13l6.7,3.87a2.15,2.15,0,0,0,2,0"/><path class="cls-22" d="M526.05,597.5l6.69,3.87a2.2,2.2,0,0,0,2,0l6.36-3.7c.54-.31.53-.82,0-1.13l-6.7-3.87a2.18,2.18,0,0,0-2,0l-6.36,3.7a.59.59,0,0,0,0,1.13"/><path class="cls-22" d="M625.53,643.24l6.36-3.7a.59.59,0,0,0,0-1.13l-6.7-3.87a2.18,2.18,0,0,0-2,0l-6.36,3.7a.59.59,0,0,0,0,1.13l6.69,3.87a2.2,2.2,0,0,0,2,0"/><path class="cls-22" d="M598.2,659.12l6.36-3.7a.6.6,0,0,0,0-1.13l-6.7-3.87a2.18,2.18,0,0,0-2,0l-6.37,3.7c-.54.31-.53.82,0,1.13l6.7,3.87a2.18,2.18,0,0,0,2,0"/><path class="cls-22" d="M523.35,585.38l6.7,3.87a2.18,2.18,0,0,0,2,0l6.36-3.7c.54-.31.54-.82,0-1.14l-6.69-3.86a2.14,2.14,0,0,0-2,0l-6.36,3.69a.6.6,0,0,0,0,1.14"/><path class="cls-22" d="M557.08,595.22l-6.7-3.87a2.18,2.18,0,0,0-2,0l-6.36,3.7a.6.6,0,0,0,0,1.13l6.7,3.87a2.12,2.12,0,0,0,2,0l6.36-3.7a.6.6,0,0,0,0-1.13"/><path class="cls-22" d="M594.5,616.83,587.81,613a2.2,2.2,0,0,0-2,0l-6.36,3.7c-.54.31-.53.82,0,1.13l6.7,3.87a2.18,2.18,0,0,0,2,0l6.36-3.7a.59.59,0,0,0,0-1.13"/><path class="cls-22" d="M527.72,576.28a.6.6,0,0,0,0,1.14l6.7,3.87a2.18,2.18,0,0,0,2,0l6.36-3.7a.6.6,0,0,0,0-1.14l-6.7-3.86a2.12,2.12,0,0,0-2,0l-6.36,3.69"/><path class="cls-22" d="M620.59,629.91l6.36-3.7c.55-.32.54-.82,0-1.14l-6.7-3.87a2.18,2.18,0,0,0-2,0l-6.36,3.7a.6.6,0,0,0,0,1.14l6.7,3.87a2.18,2.18,0,0,0,2,0"/><path class="cls-22" d="M573.81,602.89l6.36-3.69a.6.6,0,0,0,0-1.14l-6.7-3.87a2.18,2.18,0,0,0-2,0l-6.37,3.7c-.54.31-.53.82,0,1.14l6.7,3.86a2.12,2.12,0,0,0,2,0"/><path class="cls-22" d="M588.84,653.72l6.37-3.7c.54-.31.53-.82,0-1.13L588.5,645a2.12,2.12,0,0,0-2,0l-6.36,3.7a.6.6,0,0,0,0,1.13l6.7,3.87a2.18,2.18,0,0,0,2,0"/><path class="cls-22" d="M523,587.27,516.68,591a.6.6,0,0,0,0,1.14l6.7,3.87a2.18,2.18,0,0,0,2,0l6.36-3.7c.54-.31.54-.82,0-1.14L525,587.27a2.14,2.14,0,0,0-2,0"/><path class="cls-22" d="M535.4,602.91l6.7,3.86a2.12,2.12,0,0,0,2,0l6.36-3.69a.6.6,0,0,0,0-1.14l-6.7-3.87a2.18,2.18,0,0,0-2,0l-6.36,3.7a.6.6,0,0,0,0,1.14"/><path class="cls-22" d="M554.12,613.71l6.69,3.87a2.2,2.2,0,0,0,2,0l6.36-3.7c.54-.31.53-.82,0-1.14l-6.7-3.86a2.12,2.12,0,0,0-2,0l-6.36,3.69a.6.6,0,0,0,0,1.14"/><path class="cls-22" d="M572.83,624.51l6.7,3.87a2.15,2.15,0,0,0,2,0l6.36-3.7a.59.59,0,0,0,0-1.13l-6.69-3.87a2.2,2.2,0,0,0-2,0l-6.36,3.7c-.54.31-.53.82,0,1.13"/><path class="cls-22" d="M582.19,629.92l6.69,3.86a2.14,2.14,0,0,0,2,0l6.36-3.69a.6.6,0,0,0,0-1.14l-6.7-3.87a2.18,2.18,0,0,0-2,0l-6.36,3.7c-.54.31-.54.82,0,1.14"/><path class="cls-22" d="M504.33,576.46l-6.36,3.7a.6.6,0,0,0,0,1.14l6.7,3.86a2.14,2.14,0,0,0,2,0l6.36-3.69a.6.6,0,0,0,0-1.14l-6.7-3.87a2.18,2.18,0,0,0-2,0"/><path class="cls-22" d="M499.87,584.49l-6.36,3.7c-.54.31-.54.82,0,1.14l6.59,3.8a2.12,2.12,0,0,0,2,0l6.36-3.69c.51-.29.55-.76.1-1.08l-6.7-3.87a2.18,2.18,0,0,0-2,0"/><path class="cls-22" d="M481.19,591.56l6.36-3.7c.54-.31.53-.82,0-1.13L481,582.92a2.18,2.18,0,0,0-2,0l-6.37,3.7c-.54.31-.53.82,0,1.14l6.59,3.8a2.14,2.14,0,0,0,2,0"/><path class="cls-22" d="M490.54,597l6.36-3.69a.6.6,0,0,0,0-1.14l-6.59-3.81a2.2,2.2,0,0,0-2,0L482,592c-.54.31-.54.82,0,1.14l6.59,3.8a2.12,2.12,0,0,0,2,0"/><path class="cls-22" d="M471.83,586.16l6.36-3.7a.59.59,0,0,0,0-1.13l-6.59-3.81a2.18,2.18,0,0,0-2,0l-6.36,3.7a.59.59,0,0,0,0,1.13l6.59,3.81a2.18,2.18,0,0,0,2,0"/><path class="cls-22" d="M510.56,553.74l-2,1.13a.6.6,0,0,0,0,1.14L520,562.58a2.2,2.2,0,0,0,2,0l1.95-1.14a.6.6,0,0,0,0-1.14l-11.38-6.56a2.12,2.12,0,0,0-2,0"/><path class="cls-22" d="M543.26,572.61l-2,1.14a.6.6,0,0,0,0,1.14l6.7,3.87a2.2,2.2,0,0,0,2,0l1.95-1.14a.6.6,0,0,0,0-1.14l-6.7-3.87a2.18,2.18,0,0,0-2,0"/><path class="cls-22" d="M580.68,594.22l-1.95,1.14a.6.6,0,0,0,0,1.14l6.7,3.86a2.12,2.12,0,0,0,2,0l2-1.13a.6.6,0,0,0,0-1.14l-6.69-3.87a2.2,2.2,0,0,0-2,0"/><path class="cls-22" d="M562,583.42l-2,1.14a.59.59,0,0,0,0,1.13l6.7,3.87a2.18,2.18,0,0,0,2,0l2-1.14c.54-.31.53-.82,0-1.14l-6.7-3.86a2.12,2.12,0,0,0-2,0"/><path class="cls-22" d="M618.11,615.83l-2,1.14c-.54.31-.53.82,0,1.14l6.7,3.86a2.12,2.12,0,0,0,2,0l2-1.13a.6.6,0,0,0,0-1.14l-6.7-3.87a2.18,2.18,0,0,0-2,0"/><path class="cls-22" d="M599.4,605l-2,1.13a.6.6,0,0,0,0,1.14l6.69,3.87a2.2,2.2,0,0,0,2,0l1.95-1.14c.55-.31.54-.82,0-1.14l-6.7-3.86a2.12,2.12,0,0,0-2,0"/><path class="cls-22" d="M608.75,610.43l-2,1.14a.6.6,0,0,0,0,1.13l6.7,3.87a2.15,2.15,0,0,0,2,0l2-1.14a.59.59,0,0,0,0-1.13l-6.69-3.87a2.2,2.2,0,0,0-2,0"/><path class="cls-22" d="M533.9,567.21l-2,1.14c-.54.31-.54.82,0,1.14l6.7,3.86a2.12,2.12,0,0,0,2,0l2-1.13a.6.6,0,0,0,0-1.14l-6.7-3.87a2.18,2.18,0,0,0-2,0"/><path class="cls-22" d="M571.33,588.82l-2,1.14a.6.6,0,0,0,0,1.14l6.7,3.86a2.14,2.14,0,0,0,2,0l2-1.14a.6.6,0,0,0,0-1.13l-6.7-3.87a2.18,2.18,0,0,0-2,0"/><path class="cls-22" d="M524.54,561.81,522.59,563a.6.6,0,0,0,0,1.14l6.7,3.86a2.12,2.12,0,0,0,2,0l2-1.14a.59.59,0,0,0,0-1.13l-6.69-3.87a2.2,2.2,0,0,0-2,0"/><path class="cls-22" d="M552.61,578l-2,1.13a.6.6,0,0,0,0,1.14l6.7,3.87a2.18,2.18,0,0,0,2,0l2-1.14c.54-.31.54-.82,0-1.14L554.58,578a2.14,2.14,0,0,0-2,0"/><path class="cls-22" d="M643.53,632.78l2-1.14c.54-.32.54-.82,0-1.14l-6.69-3.86a2.14,2.14,0,0,0-2,0l-2,1.13a.6.6,0,0,0,0,1.14l6.7,3.87a2.18,2.18,0,0,0,2,0"/><path class="cls-22" d="M590,599.63l-2,1.13a.6.6,0,0,0,0,1.14l6.7,3.87a2.18,2.18,0,0,0,2,0l2-1.14c.54-.32.54-.82,0-1.14l-6.7-3.87a2.15,2.15,0,0,0-2,0"/><path class="cls-22" d="M627.47,621.23l-2,1.14c-.54.32-.54.82,0,1.14l6.69,3.87a2.17,2.17,0,0,0,2,0l2-1.13a.6.6,0,0,0,0-1.14l-6.7-3.87a2.18,2.18,0,0,0-2,0"/><path class="cls-8" d="M509.52,599.55l-6.36,3.69a.6.6,0,0,0,0,1.14l44.13,25.48a2.18,2.18,0,0,0,2,0l6.36-3.7a.6.6,0,0,0,0-1.14l-44.13-25.47a2.12,2.12,0,0,0-2,0"/><path class="cls-8" d="M478.68,571.26,472.32,575a.6.6,0,0,0,0,1.14l18.46,10.66a2.14,2.14,0,0,0,2,0l6.36-3.69a.6.6,0,0,0,0-1.14l-18.47-10.66a2.12,2.12,0,0,0-2,0"/><path class="cls-8" d="M607.25,652.86l6.36-3.7a.6.6,0,0,0,0-1.14l-17.78-10.26a2.18,2.18,0,0,0-2,0l-6.36,3.7a.6.6,0,0,0,0,1.13l17.78,10.27a2.18,2.18,0,0,0,2,0"/><path class="cls-8" d="M487.83,565.94l-6.36,3.69a.6.6,0,0,0,0,1.14l13.75,7.94a2.18,2.18,0,0,0,2,0l6.36-3.7a.6.6,0,0,0,0-1.14l-13.75-7.93a2.14,2.14,0,0,0-2,0"/><path class="cls-8" d="M616.41,647.54l6.36-3.7c.54-.31.54-.82,0-1.14l-13.59-7.84a2.12,2.12,0,0,0-2,0l-6.36,3.69a.6.6,0,0,0,0,1.14l13.58,7.85a2.2,2.2,0,0,0,2,0"/><path class="cls-8" d="M497,560.64l-6.36,3.69a.6.6,0,0,0,0,1.14L502,572a2.17,2.17,0,0,0,2,0l6.36-3.7a.59.59,0,0,0,0-1.13l-11.36-6.56a2.12,2.12,0,0,0-2,0"/><path class="cls-8" d="M634.58,637l6.36-3.7c.64-.37.42-.89,0-1.14l-11.32-6.54a2.2,2.2,0,0,0-2,0l-6.36,3.7c-.54.31-.53.82,0,1.14L632.62,637a2.18,2.18,0,0,0,2,0"/><path class="cls-8" d="M560.94,636.6l6.36-3.69a.6.6,0,0,0,0-1.14l-9-5.21a2.12,2.12,0,0,0-2,0l-6.36,3.69a.6.6,0,0,0,0,1.14l9,5.21a2.14,2.14,0,0,0,2,0"/><path class="cls-8" d="M502.33,602.77l6.37-3.7a.61.61,0,0,0,0-1.14l-9-5.21a2.18,2.18,0,0,0-2,0l-6.36,3.7a.6.6,0,0,0,0,1.14l9,5.21a2.18,2.18,0,0,0,2,0"/><path class="cls-8" d="M584.08,632.11l-6.36,3.7a.59.59,0,0,0,0,1.13l6.69,3.87a2.2,2.2,0,0,0,2,0l6.36-3.7a.59.59,0,0,0,0-1.13l-6.7-3.87a2.18,2.18,0,0,0-2,0"/><path class="cls-8" d="M527.25,599.3c.54-.31.54-.82,0-1.14l-6.69-3.86a2.14,2.14,0,0,0-2,0L512.22,598a.6.6,0,0,0,0,1.14l6.7,3.87a2.18,2.18,0,0,0,2,0l6.36-3.7"/><path class="cls-8" d="M537.3,605.1l-6.36,3.7a.6.6,0,0,0,0,1.13l6.7,3.87a2.18,2.18,0,0,0,2,0l6.36-3.7c.55-.31.54-.82,0-1.13l-6.7-3.87a2.18,2.18,0,0,0-2,0"/><path class="cls-8" d="M565.37,621.31,559,625a.6.6,0,0,0,0,1.14l6.7,3.87a2.18,2.18,0,0,0,2,0l6.36-3.7a.6.6,0,0,0,0-1.14l-6.7-3.86a2.12,2.12,0,0,0-2,0"/><path class="cls-8" d="M546.65,610.5l-6.36,3.7c-.54.31-.53.82,0,1.14l6.7,3.86a2.12,2.12,0,0,0,2,0l6.36-3.69a.6.6,0,0,0,0-1.14l-6.69-3.87a2.2,2.2,0,0,0-2,0"/><path class="cls-8" d="M547.72,588.81,541,585a2.12,2.12,0,0,0-2,0l-6.36,3.69a.6.6,0,0,0,0,1.14l6.69,3.87a2.2,2.2,0,0,0,2,0l6.36-3.7c.54-.31.53-.82,0-1.14"/><path class="cls-8" d="M527,574.88l6.36-3.7c.54-.31.53-.82,0-1.13l-6.7-3.87a2.18,2.18,0,0,0-2,0l-6.36,3.7a.59.59,0,0,0,0,1.13l6.69,3.87a2.2,2.2,0,0,0,2,0"/><path class="cls-8" d="M556.35,624.6a2.14,2.14,0,0,0,2,0l6.36-3.69a.6.6,0,0,0,0-1.14L558,615.9a2.18,2.18,0,0,0-2,0l-6.36,3.7c-.54.31-.54.82,0,1.14l6.69,3.86"/><path class="cls-8" d="M511.53,597.59l6.36-3.69a.6.6,0,0,0,0-1.14l-6.7-3.87a2.18,2.18,0,0,0-2,0l-6.36,3.7a.6.6,0,0,0,0,1.14l6.7,3.86a2.12,2.12,0,0,0,2,0"/><path class="cls-8" d="M607.56,633l6.7,3.86a2.12,2.12,0,0,0,2,0l6.36-3.69a.6.6,0,0,0,0-1.14l-6.69-3.87a2.2,2.2,0,0,0-2,0l-6.36,3.7c-.54.31-.53.82,0,1.14"/><path class="cls-8" d="M566.43,599.62l-6.69-3.87a2.2,2.2,0,0,0-2,0l-6.36,3.7c-.54.31-.53.82,0,1.13l6.7,3.87a2.18,2.18,0,0,0,2,0l6.36-3.7a.59.59,0,0,0,0-1.13"/><path class="cls-8" d="M611.24,623.5l6.36-3.7a.59.59,0,0,0,0-1.13l-6.7-3.87a2.15,2.15,0,0,0-2,0l-6.36,3.7a.59.59,0,0,0,0,1.13l6.69,3.87a2.2,2.2,0,0,0,2,0"/><path class="cls-8" d="M545.74,585.69l6.36-3.7c.54-.32.54-.82,0-1.14L545.4,577a2.2,2.2,0,0,0-2,0l-6.36,3.7c-.54.31-.53.82,0,1.14l6.7,3.86a2.15,2.15,0,0,0,2,0"/><path class="cls-8" d="M579.49,647.31l6.36-3.69a.6.6,0,0,0,0-1.14l-6.7-3.87a2.18,2.18,0,0,0-2,0l-6.36,3.7c-.54.31-.54.82,0,1.14l6.7,3.86a2.12,2.12,0,0,0,2,0"/><path class="cls-8" d="M511,568.74l-6.36,3.7a.59.59,0,0,0,0,1.13l6.69,3.87a2.2,2.2,0,0,0,2,0l6.36-3.7c.54-.31.53-.82,0-1.13l-6.7-3.87a2.18,2.18,0,0,0-2,0"/><path class="cls-8" d="M603.86,621.23l-6.7-3.87a2.15,2.15,0,0,0-2,0l-6.36,3.69a.6.6,0,0,0,0,1.14l6.69,3.87a2.2,2.2,0,0,0,2,0l6.36-3.7c.54-.31.53-.82,0-1.13"/><path class="cls-8" d="M585.15,610.42l-6.7-3.87a2.18,2.18,0,0,0-2,0l-6.36,3.7a.6.6,0,0,0,0,1.14l6.7,3.86a2.12,2.12,0,0,0,2,0l6.36-3.69c.55-.32.54-.82,0-1.14"/><path class="cls-8" d="M583.17,607.29l6.36-3.69a.6.6,0,0,0,0-1.14l-6.7-3.87a2.18,2.18,0,0,0-2,0l-6.36,3.7c-.54.31-.54.82,0,1.14l6.69,3.86a2.14,2.14,0,0,0,2,0"/><path class="cls-8" d="M564.45,596.49l6.37-3.7c.54-.31.53-.82,0-1.13l-6.7-3.87a2.12,2.12,0,0,0-2,0l-6.36,3.7a.6.6,0,0,0,0,1.13l6.7,3.87a2.18,2.18,0,0,0,2,0"/><path class="cls-8" d="M574.72,626.71l-6.36,3.69a.6.6,0,0,0,0,1.14l6.7,3.87a2.18,2.18,0,0,0,2,0l6.36-3.7a.6.6,0,0,0,0-1.14l-6.7-3.86a2.14,2.14,0,0,0-2,0"/><path class="cls-8" d="M527.94,599.7l-6.36,3.69a.6.6,0,0,0,0,1.14l6.69,3.87a2.2,2.2,0,0,0,2,0l6.36-3.7c.54-.31.54-.82,0-1.14l-6.7-3.86a2.12,2.12,0,0,0-2,0"/><path class="cls-8" d="M507.33,585.7l6.7,3.86a2.12,2.12,0,0,0,2,0l6.36-3.69a.6.6,0,0,0,0-1.14l-6.7-3.87a2.18,2.18,0,0,0-2,0l-6.36,3.7a.6.6,0,0,0,0,1.14"/><path class="cls-8" d="M563.47,618.11l6.7,3.87a2.18,2.18,0,0,0,2,0l6.36-3.7a.6.6,0,0,0,0-1.14l-6.7-3.86a2.15,2.15,0,0,0-2,0l-6.36,3.7a.6.6,0,0,0,0,1.14"/><path class="cls-8" d="M591.54,634.32l6.7,3.86a2.12,2.12,0,0,0,2,0l6.36-3.69a.6.6,0,0,0,0-1.14l-6.7-3.87a2.18,2.18,0,0,0-2,0l-6.36,3.7a.6.6,0,0,0,0,1.14"/><path class="cls-8" d="M544.76,607.3l6.7,3.87a2.15,2.15,0,0,0,2,0l6.36-3.69a.6.6,0,0,0,0-1.14l-6.69-3.87a2.2,2.2,0,0,0-2,0l-6.36,3.7c-.54.31-.53.82,0,1.13"/><path class="cls-8" d="M575.79,605l-6.7-3.87a2.18,2.18,0,0,0-2,0l-6.36,3.7c-.54.31-.54.82,0,1.14l6.69,3.86a2.14,2.14,0,0,0,2,0l6.36-3.69a.6.6,0,0,0,0-1.14"/><path class="cls-8" d="M529,578l-6.7-3.87a2.18,2.18,0,0,0-2,0l-6.36,3.7a.6.6,0,0,0,0,1.14l6.7,3.86a2.12,2.12,0,0,0,2,0l6.36-3.69a.6.6,0,0,0,0-1.14"/><path class="cls-8" d="M613.22,626.63l-6.7-3.87a2.18,2.18,0,0,0-2,0l-6.36,3.7a.6.6,0,0,0,0,1.13l6.7,3.87a2.15,2.15,0,0,0,2,0l6.36-3.7c.55-.31.54-.82,0-1.13"/><path class="cls-8" d="M555.1,591.09l6.36-3.7c.54-.31.54-.82,0-1.14l-6.7-3.86a2.12,2.12,0,0,0-2,0l-6.36,3.69a.6.6,0,0,0,0,1.14l6.69,3.87a2.2,2.2,0,0,0,2,0"/><path class="cls-8" d="M570.13,641.91l6.36-3.7a.6.6,0,0,0,0-1.13l-6.7-3.87a2.18,2.18,0,0,0-2,0l-6.37,3.7c-.54.31-.53.82,0,1.13l6.7,3.87a2.12,2.12,0,0,0,2,0"/><path class="cls-8" d="M509,565.61l6.7,3.87a2.18,2.18,0,0,0,2,0l6.36-3.7a.59.59,0,0,0,0-1.13l-6.69-3.87a2.14,2.14,0,0,0-2,0L509,564.47a.6.6,0,0,0,0,1.14"/><path class="cls-8" d="M506,555.38l-6.36,3.69a.6.6,0,0,0,0,1.14l6.7,3.87a2.18,2.18,0,0,0,2,0l6.36-3.7a.6.6,0,0,0,0-1.14l-6.7-3.86a2.12,2.12,0,0,0-2,0"/><path class="cls-8" d="M592.52,612.7l6.37-3.7c.54-.31.53-.82,0-1.14l-6.7-3.86a2.12,2.12,0,0,0-2,0l-6.36,3.69a.6.6,0,0,0,0,1.14l6.7,3.87a2.18,2.18,0,0,0,2,0"/><path class="cls-8" d="M601.88,618.1l6.36-3.7a.6.6,0,0,0,0-1.14l-6.7-3.86a2.14,2.14,0,0,0-2,0l-6.36,3.69a.6.6,0,0,0,0,1.14l6.7,3.87a2.18,2.18,0,0,0,2,0"/><path class="cls-8" d="M526.05,596.5l6.69,3.87a2.2,2.2,0,0,0,2,0l6.36-3.7c.54-.31.53-.82,0-1.14l-6.7-3.86a2.12,2.12,0,0,0-2,0L526,595.36a.6.6,0,0,0,0,1.14"/><path class="cls-8" d="M625.53,642.24l6.36-3.7c.54-.31.54-.82,0-1.14l-6.7-3.86a2.12,2.12,0,0,0-2,0l-6.36,3.69a.6.6,0,0,0,0,1.14l6.69,3.87a2.2,2.2,0,0,0,2,0"/><path class="cls-8" d="M598.2,658.12l6.36-3.7a.6.6,0,0,0,0-1.14l-6.7-3.86a2.12,2.12,0,0,0-2,0l-6.37,3.69a.6.6,0,0,0,0,1.14l6.7,3.87a2.18,2.18,0,0,0,2,0"/><path class="cls-8" d="M523.35,584.38l6.7,3.86a2.12,2.12,0,0,0,2,0l6.36-3.69c.54-.32.54-.82,0-1.14l-6.69-3.87a2.2,2.2,0,0,0-2,0l-6.36,3.7c-.54.31-.53.82,0,1.14"/><path class="cls-8" d="M557.08,594.22l-6.7-3.87a2.12,2.12,0,0,0-2,0L542.06,594a.6.6,0,0,0,0,1.14l6.7,3.87a2.18,2.18,0,0,0,2,0l6.36-3.7a.6.6,0,0,0,0-1.13"/><path class="cls-8" d="M594.5,615.82,587.81,612a2.14,2.14,0,0,0-2,0l-6.36,3.69a.6.6,0,0,0,0,1.14l6.7,3.87a2.18,2.18,0,0,0,2,0l6.36-3.7c.54-.31.54-.82,0-1.14"/><path class="cls-8" d="M527.72,575.28a.6.6,0,0,0,0,1.14l6.7,3.86a2.12,2.12,0,0,0,2,0l6.36-3.69a.6.6,0,0,0,0-1.14l-6.7-3.87a2.18,2.18,0,0,0-2,0l-6.36,3.7"/><path class="cls-8" d="M620.59,628.9l6.36-3.7c.55-.31.54-.82,0-1.13l-6.7-3.87a2.18,2.18,0,0,0-2,0l-6.36,3.7a.6.6,0,0,0,0,1.13l6.7,3.87a2.12,2.12,0,0,0,2,0"/><path class="cls-8" d="M573.81,601.89l6.36-3.7a.6.6,0,0,0,0-1.13l-6.7-3.87a2.18,2.18,0,0,0-2,0l-6.37,3.7c-.54.31-.53.82,0,1.13l6.7,3.87a2.15,2.15,0,0,0,2,0"/><path class="cls-8" d="M588.84,652.72l6.37-3.7c.54-.31.53-.82,0-1.14L588.5,644a2.18,2.18,0,0,0-2,0l-6.36,3.7a.6.6,0,0,0,0,1.14l6.7,3.87a2.18,2.18,0,0,0,2,0"/><path class="cls-8" d="M523,586.26l-6.36,3.7c-.54.31-.54.82,0,1.14l6.7,3.86a2.12,2.12,0,0,0,2,0l6.36-3.69c.54-.32.54-.82,0-1.14L525,586.26a2.2,2.2,0,0,0-2,0"/><path class="cls-8" d="M535.4,601.9l6.7,3.87a2.18,2.18,0,0,0,2,0l6.36-3.7a.6.6,0,0,0,0-1.13l-6.7-3.87a2.12,2.12,0,0,0-2,0l-6.36,3.69a.6.6,0,0,0,0,1.14"/><path class="cls-8" d="M554.12,612.71l6.69,3.86a2.14,2.14,0,0,0,2,0l6.36-3.69a.6.6,0,0,0,0-1.14l-6.7-3.87a2.18,2.18,0,0,0-2,0l-6.36,3.7c-.54.31-.54.82,0,1.14"/><path class="cls-8" d="M572.83,623.51l6.7,3.87a2.18,2.18,0,0,0,2,0l6.36-3.7c.54-.31.54-.82,0-1.14l-6.69-3.86a2.14,2.14,0,0,0-2,0l-6.36,3.69a.6.6,0,0,0,0,1.14"/><path class="cls-8" d="M582.19,628.91l6.69,3.87a2.2,2.2,0,0,0,2,0l6.36-3.7c.54-.31.53-.82,0-1.13l-6.7-3.87a2.18,2.18,0,0,0-2,0l-6.36,3.7a.59.59,0,0,0,0,1.13"/><path class="cls-8" d="M504.33,575.46l-6.36,3.7a.6.6,0,0,0,0,1.13l6.7,3.87a2.2,2.2,0,0,0,2,0l6.36-3.7c.54-.31.53-.82,0-1.13l-6.7-3.87a2.18,2.18,0,0,0-2,0"/><path class="cls-8" d="M499.87,583.49l-6.36,3.7a.59.59,0,0,0,0,1.13l6.59,3.81a2.18,2.18,0,0,0,2,0l6.36-3.7c.51-.29.55-.75.1-1.07l-6.7-3.87a2.18,2.18,0,0,0-2,0"/><path class="cls-8" d="M481.19,590.56l6.36-3.7c.54-.31.53-.82,0-1.14l-6.59-3.8a2.15,2.15,0,0,0-2,0l-6.37,3.7c-.54.31-.53.82,0,1.13l6.59,3.81a2.2,2.2,0,0,0,2,0"/><path class="cls-8" d="M490.54,596l6.36-3.7a.6.6,0,0,0,0-1.13l-6.59-3.81a2.2,2.2,0,0,0-2,0L482,591a.59.59,0,0,0,0,1.13l6.59,3.81a2.18,2.18,0,0,0,2,0"/><path class="cls-8" d="M471.83,585.16l6.36-3.7c.54-.31.54-.82,0-1.14l-6.59-3.8a2.12,2.12,0,0,0-2,0l-6.36,3.69a.6.6,0,0,0,0,1.14l6.59,3.81a2.18,2.18,0,0,0,2,0"/><path class="cls-8" d="M510.56,552.73l-2,1.14c-.54.31-.54.82,0,1.14L520,561.57a2.14,2.14,0,0,0,2,0l1.95-1.13a.6.6,0,0,0,0-1.14l-11.38-6.57a2.18,2.18,0,0,0-2,0"/><path class="cls-8" d="M543.26,571.61l-2,1.14a.6.6,0,0,0,0,1.14l6.7,3.86a2.14,2.14,0,0,0,2,0l1.95-1.13a.6.6,0,0,0,0-1.14l-6.7-3.87a2.18,2.18,0,0,0-2,0"/><path class="cls-8" d="M580.68,593.22l-1.95,1.14a.6.6,0,0,0,0,1.13l6.7,3.87a2.15,2.15,0,0,0,2,0l2-1.14a.59.59,0,0,0,0-1.13l-6.69-3.87a2.17,2.17,0,0,0-2,0"/><path class="cls-8" d="M562,582.41l-2,1.14a.6.6,0,0,0,0,1.14l6.7,3.87a2.18,2.18,0,0,0,2,0l2-1.14c.54-.31.53-.82,0-1.14l-6.7-3.86a2.15,2.15,0,0,0-2,0"/><path class="cls-8" d="M618.11,614.83l-2,1.13a.6.6,0,0,0,0,1.14l6.7,3.87a2.18,2.18,0,0,0,2,0l2-1.14c.54-.31.54-.82,0-1.14l-6.7-3.86a2.12,2.12,0,0,0-2,0"/><path class="cls-8" d="M599.4,604l-2,1.14c-.54.31-.54.82,0,1.14l6.69,3.87a2.2,2.2,0,0,0,2,0l1.95-1.14a.6.6,0,0,0,0-1.14l-6.7-3.87a2.18,2.18,0,0,0-2,0"/><path class="cls-8" d="M608.75,609.43l-2,1.13a.6.6,0,0,0,0,1.14l6.7,3.87a2.18,2.18,0,0,0,2,0l2-1.14c.54-.31.54-.82,0-1.14l-6.69-3.86a2.14,2.14,0,0,0-2,0"/><path class="cls-8" d="M533.9,566.21l-2,1.14a.59.59,0,0,0,0,1.13l6.7,3.87a2.18,2.18,0,0,0,2,0l2-1.14c.54-.31.53-.82,0-1.13l-6.7-3.87a2.15,2.15,0,0,0-2,0"/><path class="cls-8" d="M571.33,587.82l-2,1.13a.6.6,0,0,0,0,1.14l6.7,3.87a2.2,2.2,0,0,0,2,0l2-1.14a.6.6,0,0,0,0-1.14l-6.7-3.86a2.12,2.12,0,0,0-2,0"/><path class="cls-8" d="M524.54,560.81l-1.95,1.13a.6.6,0,0,0,0,1.14l6.7,3.87a2.18,2.18,0,0,0,2,0l2-1.14c.54-.31.54-.82,0-1.14l-6.69-3.86a2.14,2.14,0,0,0-2,0"/><path class="cls-8" d="M552.61,577l-2,1.14a.6.6,0,0,0,0,1.14l6.7,3.86a2.12,2.12,0,0,0,2,0l2-1.13a.6.6,0,0,0,0-1.14L554.58,577a2.2,2.2,0,0,0-2,0"/><path class="cls-8" d="M643.53,631.77l2-1.13a.6.6,0,0,0,0-1.14l-6.69-3.87a2.2,2.2,0,0,0-2,0l-2,1.14a.6.6,0,0,0,0,1.14l6.7,3.86a2.12,2.12,0,0,0,2,0"/><path class="cls-8" d="M590,598.62l-2,1.14c-.54.31-.54.82,0,1.14l6.7,3.86a2.12,2.12,0,0,0,2,0l2-1.13a.6.6,0,0,0,0-1.14l-6.7-3.87a2.18,2.18,0,0,0-2,0"/><path class="cls-8" d="M627.47,620.23l-2,1.14c-.54.31-.54.82,0,1.14l6.69,3.86a2.14,2.14,0,0,0,2,0l2-1.14a.6.6,0,0,0,0-1.13l-6.7-3.87a2.18,2.18,0,0,0-2,0"/></g><g id="Mouse"><path class="cls-23" d="M702.05,661.9l0,.31,0,.28c0,.1,0,.21,0,.31l-.06.28c0,.1,0,.2-.07.3s0,.18-.08.28-.07.2-.1.3l-.11.27c0,.1-.08.21-.13.31l-.12.27-.16.31c-.06.11-.12.22-.19.33l0,.08c-.1.16-.2.32-.31.47l-.06.09c-.11.16-.23.31-.35.47l-.07.08c-.11.14-.23.27-.34.4l-.1.11c-.14.15-.28.3-.44.45l-.08.08a3.89,3.89,0,0,1-.36.34l-.3.26-.28.24-.33.25-.31.24-.35.24-.34.23-.38.24a5.55,5.55,0,0,1-.48.29l-22,12.8-.69.38-.18.1-.64.32-.09,0-.73.33-.19.08-.64.26-.14,0-.77.28-.19.07-.53.17-.51.15-.43.13-.52.13-.44.11-.53.13-.44.09-.55.11-.42.08-1.18.19-.16,0c-.35.05-.69.09-1,.12l-.4,0-.67.06-.42,0-.7,0-.4,0h-2.07l-.6,0-.42,0-.64,0c-.12,0-.25,0-.37,0l-.77-.07-.23,0-1-.13-.15,0-.86-.14-.35-.06-.64-.13-.34-.07-.7-.16-.39-.09-.63-.17-.54-.16a1.39,1.39,0,0,1-.19-.06l-.8-.25-.15-.06-.65-.23-.22-.08-.51-.21-.34-.14-.49-.22-.31-.14-.52-.26-.26-.13-.75-.41a14.85,14.85,0,0,1-4.21-3.48,9.29,9.29,0,0,1-1.09-1.66c-.09-.19-.18-.38-.26-.57a7.41,7.41,0,0,1-.6-2.89v5.68c0,3.11,2,6.23,6.15,8.6l.75.42.26.13.52.25.32.15.48.22.35.14.33.14.18.06.21.09.65.23.15,0,.8.26.2.06.34.1.2.05.63.17.39.1.7.16.26.06h.07l.65.12.35.07.85.13.15,0h0l1,.12.24,0,.77.07h0l.34,0,.65,0,.41,0,.6,0h1.46l.61,0h.4l.7,0,.42,0,.67,0,.24,0,.16,0,1-.13.17,0c.39-.05.79-.12,1.18-.19h.11l.31-.06.54-.11.45-.1.53-.12.43-.11.52-.14.44-.12.5-.16.23-.07.3-.1.19-.06.77-.28.14-.06.64-.26.19-.08c.25-.1.5-.21.74-.33l.08,0,.64-.32.18-.09.7-.38,22-12.8.25-.15.23-.15.38-.24.33-.22.35-.25.31-.23.33-.26.29-.24.3-.26.12-.11.23-.22.09-.08.43-.45.1-.11.34-.4.07-.09,0,0,.32-.42.06-.09c.11-.16.21-.32.31-.48l0-.07.1-.18c0-.05,0-.11.08-.16a3,3,0,0,0,.16-.31c0-.09.09-.17.13-.26s.09-.21.13-.32l.06-.14s0-.08,0-.13.07-.2.1-.3a2.76,2.76,0,0,0,.08-.27c0-.11.05-.21.08-.31a.94.94,0,0,1,0-.16s0-.08,0-.11,0-.21.05-.32,0-.18,0-.27,0-.21,0-.32,0-.12,0-.18a1.09,1.09,0,0,1,0-.18v-5.69C702.06,661.65,702.05,661.78,702.05,661.9Z"/><path class="cls-8" d="M695.9,652.93c8.18,4.72,8.22,12.37.1,17.08l-22,12.8c-8.12,4.72-21.32,4.72-29.49,0s-8.21-12.37-.1-17.08l22-12.8C674.53,648.21,687.73,648.21,695.9,652.93Z"/></g></g></svg>