<svg xmlns="http://www.w3.org/2000/svg" xmlns:xlink="http://www.w3.org/1999/xlink" viewBox="0 0 2560 1837"><defs><style>.cls-1{fill:#fdffff;}.cls-2{mask:url(#mask);}.cls-3{fill:#233041;}.cls-4{font-size:81.45px;fill:#3fa9f5;}.cls-4,.cls-8{font-family:Rubik-Bold, Rubik;font-weight:700;}.cls-5{letter-spacing:-0.02em;}.cls-6{letter-spacing:-0.02em;}.cls-7{letter-spacing:-0.02em;}.cls-8{font-size:155.87px;fill:#7ac943;}.cls-9{fill:#fff6c7;}.cls-10{fill:#314d51;}.cls-11,.cls-12,.cls-18{fill:none;stroke:#314d51;stroke-miterlimit:10;}.cls-11,.cls-12{stroke-linecap:round;}.cls-11{stroke-width:3px;}.cls-12{stroke-width:6px;}.cls-13{fill:#578476;}.cls-14{fill:#46665a;}.cls-15{fill:#fff;}.cls-16{fill:#ff4e00;}.cls-17{fill:#ffa440;}.cls-18{stroke-width:7px;}.cls-19{fill:#fcfbfa;opacity:0.63;}.cls-20{fill:#000f15;}</style><mask id="mask" x="0" y="258" width="2560" height="1579" maskUnits="userSpaceOnUse"><g transform="translate(0 258)"><rect class="cls-1" width="2560" height="1440"/></g></mask></defs><title>background1</title><g class="cls-2"><g id="Content"><rect class="cls-3" y="258" width="2560" height="1440"/><text class="cls-4" transform="translate(1688.41 1049.17)">Business<tspan class="cls-5" x="371.02" y="0"> </tspan><tspan x="386.58" y="0">to d</tspan><tspan class="cls-6" x="543.94" y="0">a</tspan><tspan class="cls-7" x="590.78" y="0">y</tspan></text><text class="cls-8" transform="translate(1682.23 982.79)">Start up</text><path class="cls-9" d="M1284,660V932s56-1,55,0,0-272,0-272Z" transform="translate(0 258)"/><path class="cls-10" d="M1359.28,575.92c23.89,11.94,35.83,23.89,35.83,23.89,0,23.88,23.89,131.38,23.89,131.38l-47.78-95.55-11.94-11.95-23.89-11.94Z" transform="translate(0 258)"/><path class="cls-10" d="M1263.72,575.92c-23.89,11.94-35.83,23.89-35.83,23.89,0,23.88-23.89,131.38-23.89,131.38l47.78-95.55,11.94-11.95,23.89-11.94Z" transform="translate(0 258)"/><path class="cls-11" d="M1311.5,400.73V343" transform="translate(0 258)"/><path class="cls-12" d="M1311.5,345.65V343" transform="translate(0 258)"/><path class="cls-13" d="M1339,659.53c37.72-52.1,88.32-159.1-27.61-262.4-115.92,103.3-65.32,210.3-27.6,262.4Z" transform="translate(0 258)"/><path class="cls-14" d="M1311.5,397.19l-.07-.06c-115.92,103.3-65.32,210.3-27.6,262.4h27.67Z" transform="translate(0 258)"/><path class="cls-10" d="M1337,422.93q-2.4-2.78-4.93-5.53a66.72,66.72,0,0,1-41.2,0c-1.69,1.84-3.34,3.69-4.93,5.53a89.93,89.93,0,0,0,51.06,0Z" transform="translate(0 258)"/><path class="cls-10" d="M1255.47,610c1.69,4,3.48,7.83,5.33,11.58,15.11,1.35,32.37,2.11,50.7,2.11s35.49-.76,50.56-2.1c1.85-3.74,3.64-7.61,5.34-11.58-16.29,1.1-35.43,1.74-55.9,1.74S1271.78,611.11,1255.47,610Z" transform="translate(0 258)"/><path class="cls-10" d="M1311.5,502.08a21.72,21.72,0,1,1,21.72-21.72A21.75,21.75,0,0,1,1311.5,502.08Z" transform="translate(0 258)"/><path class="cls-15" d="M1311.5,462.15a18.22,18.22,0,1,1-18.22,18.21,18.24,18.24,0,0,1,18.22-18.21m0-7a25.22,25.22,0,1,0,25.22,25.21,25.21,25.21,0,0,0-25.22-25.21Z" transform="translate(0 258)"/><path class="cls-16" d="M1283.63,659.53c-63.7,29.2,27.87,97.54,27.87,140.68,9.29-69,86.93-96.89,27.87-140.68Z" transform="translate(0 258)"/><path class="cls-17" d="M1283.63,659.53c-28.53,24.55,21.9,85.6,21.9,85.6s61.71-49.77,33.84-85.6Z" transform="translate(0 258)"/><path class="cls-10" d="M1290.27,597.33c0-8.89,9.5-16.1,21.23-16.1s21.23,7.21,21.23,16.1-21.23,133.86-21.23,133.86S1290.27,606.22,1290.27,597.33Z" transform="translate(0 258)"/><path class="cls-18" d="M1287.61,528.14h0Z" transform="translate(0 258)"/><path class="cls-18" d="M1287.61,552h47.78" transform="translate(0 258)"/><circle class="cls-19" cx="1319.13" cy="729.4" r="3.65"/><path class="cls-9" d="M1773.82,1401.24a74.46,74.46,0,0,0-54.07-123.18,106.05,106.05,0,0,0-98.8-70,27.49,27.49,0,0,0-48-24.53,51.09,51.09,0,0,0-14.38-20.89,30.51,30.51,0,0,0-33.81-49.23,56.72,56.72,0,0,0-14.94-33.11,32,32,0,1,0-44.74-42.81,24,24,0,0,0-21-12.44l-.63,0a43.51,43.51,0,0,0-49.48-61.71,29.52,29.52,0,0,0-33.18-15.52A19,19,0,0,0,1342.43,932a32,32,0,0,0-63,.7,27.42,27.42,0,0,0-30.32,45,19.75,19.75,0,0,0-13.53,26,64.81,64.81,0,0,0-92,58.84c0,2.15.11,4.27.31,6.36a31.68,31.68,0,0,0-49.27,15.83,80.63,80.63,0,0,0-117.86,65.33,61.93,61.93,0,0,0-83.56,52.82A49.49,49.49,0,0,0,830.31,1256l-.81,0A85.49,85.49,0,0,0,757,1386.79a82.5,82.5,0,1,0,125,70.71c0-.29,0-.57,0-.86l774-3.34a1.34,1.34,0,0,0,0,.2,70.5,70.5,0,1,0,117.82-52.26Z" transform="translate(0 258)"/><path class="cls-17" d="M1350,1384.45a68.49,68.49,0,0,0-117.52-20.32,101.53,101.53,0,0,0-185.34-5.92A76,76,0,0,0,923,1417c0,.14,0,.29,0,.43a45,45,0,1,0,11.15,39.22,76,76,0,0,0,124.06,8,101.52,101.52,0,0,0,171.45-17.45,68.45,68.45,0,0,0,46.23,28.16,59,59,0,1,0,74.11-90.87Z" transform="translate(0 258)"/><path class="cls-17" d="M1580.5,1375a50.27,50.27,0,0,0-31.26,10.86,60.5,60.5,0,0,0-105.7.39,47,47,0,1,0,14.07,75.59,60.48,60.48,0,0,0,83.19-5.15,50.49,50.49,0,1,0,39.7-81.69Z" transform="translate(0 258)"/><path class="cls-17" d="M1876,1318a79,79,0,0,0-75.93,100.79,85.42,85.42,0,1,0,39.81,48.46A79,79,0,1,0,1876,1318Z" transform="translate(0 258)"/></g></g><g id="Colors"><rect class="cls-20" x="428" width="200" height="200"/><rect class="cls-9" x="652" width="200" height="200"/><rect class="cls-16" x="879" y="2" width="200" height="200"/><rect class="cls-10" x="1111" y="4" width="200" height="200"/><rect class="cls-14" x="1344" y="3" width="200" height="200"/><rect class="cls-13" x="1579" y="2" width="200" height="200"/><rect class="cls-17" x="1823" y="3" width="200" height="200"/></g></svg>